<svg width="66" height="66" viewBox="0 0 66 66" fill="none" xmlns="http://www.w3.org/2000/svg">
<mask id="mask0_75_50" style="mask-type:alpha" maskUnits="userSpaceOnUse" x="0" y="0" width="66" height="66">
<rect width="66" height="66" fill="#D9D9D9"/>
</mask>
<g mask="url(#mask0_75_50)">
<path d="M30.25 13.75V2.75H35.75V13.75H30.25ZM48.5375 21.3125L44.6875 17.4625L52.4563 9.625L56.3063 13.5437L48.5375 21.3125ZM52.25 35.75V30.25H63.25V35.75H52.25ZM52.4563 56.3063L44.6875 48.5375L48.5375 44.6875L56.375 52.3875L52.4563 56.3063ZM17.4625 21.3125L9.69375 13.5437L13.6125 9.625L21.3125 17.4625L17.4625 21.3125ZM16.5 52.25H28.875C30.0208 52.25 30.9948 51.849 31.7969 51.0469C32.599 50.2448 33 49.2708 33 48.125C33 46.9792 32.6104 46.0052 31.8312 45.2031C31.0521 44.401 30.0896 44 28.9438 44H25.4375L24.0625 40.7C23.4208 39.1875 22.4125 37.9844 21.0375 37.0906C19.6625 36.1969 18.15 35.75 16.5 35.75C14.2083 35.75 12.2604 36.5521 10.6562 38.1562C9.05208 39.7604 8.25 41.7083 8.25 44C8.25 46.2917 9.05208 48.2396 10.6562 49.8438C12.2604 51.4479 14.2083 52.25 16.5 52.25ZM16.5 57.75C12.6958 57.75 9.45312 56.4094 6.77187 53.7281C4.09062 51.0469 2.75 47.8042 2.75 44C2.75 40.1958 4.09062 36.9531 6.77187 34.2719C9.45312 31.5906 12.6958 30.25 16.5 30.25C19.25 30.25 21.7594 30.9948 24.0281 32.4844C26.2969 33.974 27.9812 35.9792 29.0812 38.5C31.7396 38.5 33.974 39.4854 35.7844 41.4562C37.5948 43.4271 38.5 45.7875 38.5 48.5375C38.4083 51.15 37.4344 53.3385 35.5781 55.1031C33.7219 56.8677 31.4875 57.75 28.875 57.75H16.5ZM38.5 48.5375C38.2708 47.6208 38.0417 46.7271 37.8125 45.8563C37.5833 44.9854 37.3542 44.0917 37.125 43.175C39.1875 42.3042 40.849 40.9521 42.1094 39.1188C43.3698 37.2854 44 35.2458 44 33C44 29.975 42.9229 27.3854 40.7687 25.2313C38.6146 23.0771 36.025 22 33 22C30.25 22 27.8438 22.8937 25.7812 24.6812C23.7188 26.4687 22.5042 28.7375 22.1375 31.4875C21.2208 31.2583 20.2813 31.0521 19.3188 30.8688C18.3563 30.6854 17.4167 30.4792 16.5 30.25C17.1417 26.2167 19.0323 22.9167 22.1719 20.35C25.3115 17.7833 28.9208 16.5 33 16.5C37.5833 16.5 41.4792 18.1042 44.6875 21.3125C47.8958 24.5208 49.5 28.4167 49.5 33C49.5 36.5292 48.4917 39.7031 46.475 42.5219C44.4583 45.3406 41.8 47.3458 38.5 48.5375Z" fill="#ACA881"/>
</g>
</svg>
