<svg width="66" height="66" viewBox="0 0 66 66" fill="none" xmlns="http://www.w3.org/2000/svg">
<mask id="mask0_74_44" style="mask-type:alpha" maskUnits="userSpaceOnUse" x="0" y="0" width="66" height="66">
<rect width="66" height="66" fill="#D9D9D9"/>
</mask>
<g mask="url(#mask0_74_44)">
<path d="M11 52.25C10.2208 52.25 9.56771 51.9865 9.04062 51.4594C8.51354 50.9323 8.25 50.2792 8.25 49.5C8.25 48.7208 8.51354 48.0677 9.04062 47.5406C9.56771 47.0135 10.2208 46.75 11 46.75H38.5C39.2792 46.75 39.9323 47.0135 40.4594 47.5406C40.9865 48.0677 41.25 48.7208 41.25 49.5C41.25 50.2792 40.9865 50.9323 40.4594 51.4594C39.9323 51.9865 39.2792 52.25 38.5 52.25H11ZM49.5 52.25C48.7208 52.25 48.0677 51.9865 47.5406 51.4594C47.0135 50.9323 46.75 50.2792 46.75 49.5C46.75 48.7208 47.0135 48.0677 47.5406 47.5406C48.0677 47.0135 48.7208 46.75 49.5 46.75H55C55.7792 46.75 56.4323 47.0135 56.9594 47.5406C57.4865 48.0677 57.75 48.7208 57.75 49.5C57.75 50.2792 57.4865 50.9323 56.9594 51.4594C56.4323 51.9865 55.7792 52.25 55 52.25H49.5ZM11 41.25C10.2208 41.25 9.56771 40.9865 9.04062 40.4594C8.51354 39.9323 8.25 39.2792 8.25 38.5C8.25 37.7208 8.51354 37.0677 9.04062 36.5406C9.56771 36.0135 10.2208 35.75 11 35.75H16.5C17.2792 35.75 17.9323 36.0135 18.4594 36.5406C18.9865 37.0677 19.25 37.7208 19.25 38.5C19.25 39.2792 18.9865 39.9323 18.4594 40.4594C17.9323 40.9865 17.2792 41.25 16.5 41.25H11ZM27.5 41.25C26.7208 41.25 26.0677 40.9865 25.5406 40.4594C25.0135 39.9323 24.75 39.2792 24.75 38.5C24.75 37.7208 25.0135 37.0677 25.5406 36.5406C26.0677 36.0135 26.7208 35.75 27.5 35.75H55C55.7792 35.75 56.4323 36.0135 56.9594 36.5406C57.4865 37.0677 57.75 37.7208 57.75 38.5C57.75 39.2792 57.4865 39.9323 56.9594 40.4594C56.4323 40.9865 55.7792 41.25 55 41.25H27.5ZM11 30.25C10.2208 30.25 9.56771 29.9865 9.04062 29.4594C8.51354 28.9323 8.25 28.2792 8.25 27.5C8.25 26.7208 8.51354 26.0677 9.04062 25.5406C9.56771 25.0135 10.2208 24.75 11 24.75H41.25C42.0292 24.75 42.6823 25.0135 43.2094 25.5406C43.7365 26.0677 44 26.7208 44 27.5C44 28.2792 43.7365 28.9323 43.2094 29.4594C42.6823 29.9865 42.0292 30.25 41.25 30.25H11ZM52.25 30.25C51.4708 30.25 50.8177 29.9865 50.2906 29.4594C49.7635 28.9323 49.5 28.2792 49.5 27.5C49.5 26.7208 49.7635 26.0677 50.2906 25.5406C50.8177 25.0135 51.4708 24.75 52.25 24.75H55C55.7792 24.75 56.4323 25.0135 56.9594 25.5406C57.4865 26.0677 57.75 26.7208 57.75 27.5C57.75 28.2792 57.4865 28.9323 56.9594 29.4594C56.4323 29.9865 55.7792 30.25 55 30.25H52.25ZM11 19.25C10.2208 19.25 9.56771 18.9865 9.04062 18.4594C8.51354 17.9323 8.25 17.2792 8.25 16.5C8.25 15.7208 8.51354 15.0677 9.04062 14.5406C9.56771 14.0135 10.2208 13.75 11 13.75H24.75C25.5292 13.75 26.1823 14.0135 26.7094 14.5406C27.2365 15.0677 27.5 15.7208 27.5 16.5C27.5 17.2792 27.2365 17.9323 26.7094 18.4594C26.1823 18.9865 25.5292 19.25 24.75 19.25H11ZM35.75 19.25C34.9708 19.25 34.3177 18.9865 33.7906 18.4594C33.2635 17.9323 33 17.2792 33 16.5C33 15.7208 33.2635 15.0677 33.7906 14.5406C34.3177 14.0135 34.9708 13.75 35.75 13.75H55C55.7792 13.75 56.4323 14.0135 56.9594 14.5406C57.4865 15.0677 57.75 15.7208 57.75 16.5C57.75 17.2792 57.4865 17.9323 56.9594 18.4594C56.4323 18.9865 55.7792 19.25 55 19.25H35.75Z" fill="#B2AEC0"/>
</g>
</svg>
