<svg width="66" height="66" viewBox="0 0 66 66" fill="none" xmlns="http://www.w3.org/2000/svg">
<mask id="mask0_74_26" style="mask-type:alpha" maskUnits="userSpaceOnUse" x="0" y="0" width="66" height="66">
<rect width="66" height="66" fill="#D9D9D9"/>
</mask>
<g mask="url(#mask0_74_26)">
<path d="M38.3625 60.225C37.675 60.5917 36.976 60.649 36.2656 60.3969C35.5552 60.1448 35.0167 59.675 34.65 58.9875L30.525 50.7375C30.1583 50.05 30.101 49.351 30.3531 48.6406C30.6052 47.9302 31.075 47.3917 31.7625 47.025C32.45 46.6583 33.149 46.601 33.8594 46.8531C34.5698 47.1052 35.1083 47.575 35.475 48.2625L39.6 56.5125C39.9667 57.2 40.024 57.899 39.7719 58.6094C39.5198 59.3198 39.05 59.8583 38.3625 60.225ZM54.8625 60.225C54.175 60.5917 53.476 60.649 52.7656 60.3969C52.0552 60.1448 51.5167 59.675 51.15 58.9875L47.025 50.7375C46.6583 50.05 46.601 49.351 46.8531 48.6406C47.1052 47.9302 47.575 47.3917 48.2625 47.025C48.95 46.6583 49.649 46.601 50.3594 46.8531C51.0698 47.1052 51.6083 47.575 51.975 48.2625L56.1 56.5125C56.4667 57.2 56.524 57.899 56.2719 58.6094C56.0198 59.3198 55.55 59.8583 54.8625 60.225ZM21.8625 60.225C21.175 60.5917 20.476 60.649 19.7656 60.3969C19.0552 60.1448 18.5167 59.675 18.15 58.9875L14.025 50.7375C13.6583 50.05 13.601 49.351 13.8531 48.6406C14.1052 47.9302 14.575 47.3917 15.2625 47.025C15.95 46.6583 16.649 46.601 17.3594 46.8531C18.0698 47.1052 18.6083 47.575 18.975 48.2625L23.1 56.5125C23.4667 57.2 23.524 57.899 23.2719 58.6094C23.0198 59.3198 22.55 59.8583 21.8625 60.225ZM20.625 44C16.4542 44 12.8906 42.5219 9.93438 39.5656C6.97813 36.6094 5.5 33.0458 5.5 28.875C5.5 25.0708 6.76042 21.7479 9.28125 18.9062C11.8021 16.0646 14.9188 14.3917 18.6313 13.8875C20.0979 11.275 22.1031 9.22396 24.6469 7.73438C27.1906 6.24479 29.975 5.5 33 5.5C37.125 5.5 40.7115 6.81771 43.7594 9.45312C46.8073 12.0885 48.6521 15.3771 49.2938 19.3188C52.4563 19.5938 55.1146 20.9 57.2688 23.2375C59.4229 25.575 60.5 28.3708 60.5 31.625C60.5 35.0625 59.2969 37.9844 56.8906 40.3906C54.4844 42.7969 51.5625 44 48.125 44H20.625ZM20.625 38.5H48.125C50.05 38.5 51.6771 37.8354 53.0062 36.5063C54.3354 35.1771 55 33.55 55 31.625C55 29.7 54.3354 28.0729 53.0062 26.7437C51.6771 25.4146 50.05 24.75 48.125 24.75H44V22C44 18.975 42.9229 16.3854 40.7687 14.2312C38.6146 12.0771 36.025 11 33 11C30.8 11 28.7948 11.5958 26.9844 12.7875C25.174 13.9792 23.8104 15.5833 22.8938 17.6L22.2063 19.25H20.4875C17.875 19.3417 15.6406 20.3156 13.7844 22.1719C11.9281 24.0281 11 26.2625 11 28.875C11 31.5333 11.9396 33.8021 13.8188 35.6813C15.6979 37.5604 17.9667 38.5 20.625 38.5Z" fill="#46779A"/>
</g>
</svg>
