<svg width="66" height="66" viewBox="0 0 66 66" fill="none" xmlns="http://www.w3.org/2000/svg">
<mask id="mask0_74_38" style="mask-type:alpha" maskUnits="userSpaceOnUse" x="0" y="0" width="66" height="66">
<rect width="66" height="66" fill="#D9D9D9"/>
</mask>
<g mask="url(#mask0_74_38)">
<path d="M17.875 52.25C16.9125 52.25 16.099 51.9177 15.4344 51.2531C14.7698 50.5885 14.4375 49.775 14.4375 48.8125C14.4375 47.85 14.7698 47.0365 15.4344 46.3719C16.099 45.7073 16.9125 45.375 17.875 45.375C18.8375 45.375 19.651 45.7073 20.3156 46.3719C20.9802 47.0365 21.3125 47.85 21.3125 48.8125C21.3125 49.775 20.9802 50.5885 20.3156 51.2531C19.651 51.9177 18.8375 52.25 17.875 52.25ZM26.125 60.5C25.1625 60.5 24.349 60.1677 23.6844 59.5031C23.0198 58.8385 22.6875 58.025 22.6875 57.0625C22.6875 56.1 23.0198 55.2865 23.6844 54.6219C24.349 53.9573 25.1625 53.625 26.125 53.625C27.0875 53.625 27.901 53.9573 28.5656 54.6219C29.2302 55.2865 29.5625 56.1 29.5625 57.0625C29.5625 58.025 29.2302 58.8385 28.5656 59.5031C27.901 60.1677 27.0875 60.5 26.125 60.5ZM34.375 52.25C33.4125 52.25 32.599 51.9177 31.9344 51.2531C31.2698 50.5885 30.9375 49.775 30.9375 48.8125C30.9375 47.85 31.2698 47.0365 31.9344 46.3719C32.599 45.7073 33.4125 45.375 34.375 45.375C35.3375 45.375 36.151 45.7073 36.8156 46.3719C37.4802 47.0365 37.8125 47.85 37.8125 48.8125C37.8125 49.775 37.4802 50.5885 36.8156 51.2531C36.151 51.9177 35.3375 52.25 34.375 52.25ZM50.875 52.25C49.9125 52.25 49.099 51.9177 48.4344 51.2531C47.7698 50.5885 47.4375 49.775 47.4375 48.8125C47.4375 47.85 47.7698 47.0365 48.4344 46.3719C49.099 45.7073 49.9125 45.375 50.875 45.375C51.8375 45.375 52.651 45.7073 53.3156 46.3719C53.9802 47.0365 54.3125 47.85 54.3125 48.8125C54.3125 49.775 53.9802 50.5885 53.3156 51.2531C52.651 51.9177 51.8375 52.25 50.875 52.25ZM42.625 60.5C41.6625 60.5 40.849 60.1677 40.1844 59.5031C39.5198 58.8385 39.1875 58.025 39.1875 57.0625C39.1875 56.1 39.5198 55.2865 40.1844 54.6219C40.849 53.9573 41.6625 53.625 42.625 53.625C43.5875 53.625 44.401 53.9573 45.0656 54.6219C45.7302 55.2865 46.0625 56.1 46.0625 57.0625C46.0625 58.025 45.7302 58.8385 45.0656 59.5031C44.401 60.1677 43.5875 60.5 42.625 60.5ZM20.625 41.25C16.4542 41.25 12.8906 39.7719 9.93438 36.8156C6.97813 33.8594 5.5 30.2958 5.5 26.125C5.5 22.3208 6.76042 18.9979 9.28125 16.1562C11.8021 13.3146 14.9188 11.6417 18.6313 11.1375C20.0979 8.525 22.1031 6.47396 24.6469 4.98438C27.1906 3.49479 29.975 2.75 33 2.75C37.125 2.75 40.7115 4.06771 43.7594 6.70312C46.8073 9.33854 48.6521 12.6271 49.2938 16.5688C52.4563 16.8438 55.1146 18.15 57.2688 20.4875C59.4229 22.825 60.5 25.6208 60.5 28.875C60.5 32.3125 59.2969 35.2344 56.8906 37.6406C54.4844 40.0469 51.5625 41.25 48.125 41.25H20.625ZM20.625 35.75H48.125C50.05 35.75 51.6771 35.0854 53.0062 33.7563C54.3354 32.4271 55 30.8 55 28.875C55 26.95 54.3354 25.3229 53.0062 23.9937C51.6771 22.6646 50.05 22 48.125 22H44V19.25C44 16.225 42.9229 13.6354 40.7687 11.4812C38.6146 9.32708 36.025 8.25 33 8.25C30.8 8.25 28.7948 8.84583 26.9844 10.0375C25.174 11.2292 23.8104 12.8333 22.8938 14.85L22.2063 16.5H20.4875C17.875 16.5917 15.6406 17.5656 13.7844 19.4219C11.9281 21.2781 11 23.5125 11 26.125C11 28.7833 11.9396 31.0521 13.8188 32.9313C15.6979 34.8104 17.9667 35.75 20.625 35.75Z" fill="#AAB9B9"/>
</g>
</svg>
