<svg width="63" height="63" viewBox="0 0 63 63" fill="none" xmlns="http://www.w3.org/2000/svg">
<mask id="mask0_14_56" style="mask-type:alpha" maskUnits="userSpaceOnUse" x="0" y="0" width="63" height="63">
<rect width="63" height="63" fill="#D9D9D9"/>
</mask>
<g mask="url(#mask0_14_56)">
<path d="M31.5002 39.3752C33.6877 39.3752 35.5471 38.6096 37.0784 37.0784C38.6096 35.5471 39.3752 33.6877 39.3752 31.5002C39.3752 29.3127 38.6096 27.4534 37.0784 25.9221C35.5471 24.3909 33.6877 23.6252 31.5002 23.6252C29.3127 23.6252 27.4534 24.3909 25.9221 25.9221C24.3909 27.4534 23.6252 29.3127 23.6252 31.5002C23.6252 33.6877 24.3909 35.5471 25.9221 37.0784C27.4534 38.6096 29.3127 39.3752 31.5002 39.3752ZM31.5002 44.6252C27.869 44.6252 24.7737 43.3456 22.2143 40.7862C19.6549 38.2268 18.3752 35.1315 18.3752 31.5002C18.3752 27.869 19.6549 24.7737 22.2143 22.2143C24.7737 19.6549 27.869 18.3752 31.5002 18.3752C35.1315 18.3752 38.2268 19.6549 40.7862 22.2143C43.3456 24.7737 44.6252 27.869 44.6252 31.5002C44.6252 35.1315 43.3456 38.2268 40.7862 40.7862C38.2268 43.3456 35.1315 44.6252 31.5002 44.6252ZM13.1252 34.1252H2.62524V28.8752H13.1252V34.1252ZM60.3752 34.1252H49.8752V28.8752H60.3752V34.1252ZM28.8752 13.1252V2.62524H34.1252V13.1252H28.8752ZM28.8752 60.3752V49.8752H34.1252V60.3752H28.8752ZM16.8002 20.344L10.1721 13.9784L13.9127 10.1065L20.2127 16.669L16.8002 20.344ZM49.0877 52.894L42.7221 46.2659L46.2002 42.6565L52.8284 49.0221L49.0877 52.894ZM42.6565 16.8002L49.0221 10.1721L52.894 13.9127L46.3315 20.2127L42.6565 16.8002ZM10.1065 49.0877L16.7346 42.7221L20.344 46.2002L13.9784 52.8284L10.1065 49.0877Z" fill="#FFA800"/>
</g>
</svg>
