<svg width="66" height="66" viewBox="0 0 66 66" fill="none" xmlns="http://www.w3.org/2000/svg">
<mask id="mask0_74_32" style="mask-type:alpha" maskUnits="userSpaceOnUse" x="0" y="0" width="66" height="66">
<rect width="66" height="66" fill="#D9D9D9"/>
</mask>
<g mask="url(#mask0_74_32)">
<path d="M31.7625 66L38.225 58.6438L32.725 55.8938L40.7 46.75H47.9875L41.525 54.1063L47.025 56.8563L39.05 66H31.7625ZM15.2625 66L21.725 58.6438L16.225 55.8938L24.2 46.75H31.4875L25.025 54.1063L30.525 56.8563L22.55 66H15.2625ZM20.625 44C16.4542 44 12.8906 42.5219 9.93438 39.5656C6.97813 36.6094 5.5 33.0458 5.5 28.875C5.5 25.0708 6.76042 21.7479 9.28125 18.9062C11.8021 16.0646 14.9188 14.3917 18.6313 13.8875C20.0979 11.275 22.1031 9.22396 24.6469 7.73438C27.1906 6.24479 29.975 5.5 33 5.5C37.125 5.5 40.7115 6.81771 43.7594 9.45312C46.8073 12.0885 48.6521 15.3771 49.2938 19.3188C52.4563 19.5938 55.1146 20.9 57.2688 23.2375C59.4229 25.575 60.5 28.3708 60.5 31.625C60.5 35.0625 59.2969 37.9844 56.8906 40.3906C54.4844 42.7969 51.5625 44 48.125 44H20.625ZM20.625 38.5H48.125C50.05 38.5 51.6771 37.8354 53.0062 36.5063C54.3354 35.1771 55 33.55 55 31.625C55 29.7 54.3354 28.0729 53.0062 26.7437C51.6771 25.4146 50.05 24.75 48.125 24.75H44V22C44 18.975 42.9229 16.3854 40.7687 14.2312C38.6146 12.0771 36.025 11 33 11C30.8 11 28.7948 11.5958 26.9844 12.7875C25.174 13.9792 23.8104 15.5833 22.8938 17.6L22.2063 19.25H20.4875C17.875 19.3417 15.6406 20.3156 13.7844 22.1719C11.9281 24.0281 11 26.2625 11 28.875C11 31.5333 11.9396 33.8021 13.8188 35.6813C15.6979 37.5604 17.9667 38.5 20.625 38.5Z" fill="#61579B"/>
</g>
</svg>
